<?xml version="1.0" standalone="no"?>
<!DOCTYPE svg PUBLIC "-//W3C//DTD SVG 20010904//EN"
 "http://www.w3.org/TR/2001/REC-SVG-20010904/DTD/svg10.dtd">
<svg version="1.0" xmlns="http://www.w3.org/2000/svg"
 width="1024.000000pt" height="1024.000000pt" viewBox="0 0 1024.000000 1024.000000"
 preserveAspectRatio="xMidYMid meet">

<g transform="translate(0.000000,1024.000000) scale(0.100000,-0.100000)"
fill="#000000" stroke="none">
<path d="M3241 10229 c-976 -94 -1860 -572 -2468 -1336 -406 -510 -655 -1097
-750 -1773 -25 -179 -25 -721 0 -900 115 -816 457 -1511 1022 -2075 604 -603
1379 -963 2233 -1036 178 -15 581 -6 742 16 634 86 1208 320 1694 688 l79 59
430 -430 430 -431 -27 -35 c-97 -127 -110 -296 -34 -426 12 -19 586 -601 1277
-1292 l1256 -1258 90 0 90 0 468 468 467 467 0 50 0 50 -1282 1281 c-1395
1392 -1305 1309 -1443 1335 -93 17 -212 -15 -294 -80 l-37 -29 -428 428 -429
427 70 89 c383 488 628 1082 720 1744 22 159 25 680 5 840 -89 704 -340 1304
-770 1841 -540 676 -1346 1147 -2195 1284 -265 43 -672 58 -916 34z m619 -754
c167 -18 267 -36 438 -80 747 -195 1408 -723 1771 -1416 149 -283 248 -594
298 -934 27 -184 24 -592 -5 -780 -79 -505 -260 -928 -572 -1335 -96 -124
-368 -395 -495 -491 -409 -311 -836 -489 -1350 -566 -185 -27 -591 -24 -784 6
-412 63 -812 216 -1138 434 -182 121 -263 186 -412 332 -163 159 -271 288
-393 470 -305 456 -468 999 -468 1555 0 1441 1081 2646 2515 2805 163 18 431
18 595 0z"/>
</g>
</svg>
